<svg height="512pt" viewBox="0 -39 512 512" width="512pt" xmlns="http://www.w3.org/2000/svg"><path d="m512 207.601562c0-39.703124-32.300781-71.902343-71.898438-71.902343-15.601562 0-30.5 5-42.800781 14.101562-34.902343-17.601562-76.402343-28.199219-120.300781-30.699219l28.699219-79.300781 69.402343 17.300781c1.5 28.5 25.199219 51.097657 54 51.097657 29.796876 0 54.097657-24.300781 54.097657-54.097657 0-29.800781-24.300781-54.101562-54.097657-54.101562-20.300781 0-38 11.199219-47.300781 27.800781l-95.101562-23.800781-41.398438 114.5c-47.699219 1.398438-92.902343 12.199219-130.601562 31.101562-12.300781-9.101562-27.097657-14-42.699219-14-39.699219.097657-72 32.398438-72 72 0 19.398438 8 38.097657 21.699219 51.5-.898438 5.699219-1.398438 11.5-1.398438 17.296876 0 43.5 25.398438 83.902343 71.398438 113.703124 44 28.597657 102.300781 44.296876 164.101562 44.296876s120-15.699219 164.097657-44.296876c46-29.902343 71.402343-70.300781 71.402343-113.703124 0-5.699219-.5-11.398438-1.300781-17.097657 13.898438-13.300781 22-32.101562 22-51.699219zm-368.601562 42c0-23.101562 18.800781-41.902343 41.902343-41.902343 23.097657 0 41.898438 18.800781 41.898438 41.902343 0 23.097657-18.800781 41.898438-41.898438 41.898438-23.101562 0-41.902343-18.800781-41.902343-41.898438zm115.300781 132.597657c-32.5 0-64.199219-9.199219-91.597657-26.597657l16.097657-25.300781c22.601562 14.398438 48.800781 22 75.601562 22s52.898438-7.601562 75.597657-22l16.101562 25.300781c-27.601562 17.398438-59.300781 26.597657-91.800781 26.597657zm74.300781-90.699219c-23.101562 0-41.898438-18.800781-41.898438-41.898438 0-23.101562 18.796876-41.902343 41.898438-41.902343s41.898438 18.800781 41.898438 41.902343c0 23.097657-18.796876 41.898438-41.898438 41.898438zm0 0"/></svg>