<?xml version="1.0" encoding="iso-8859-1"?>
<!-- Generator: Adobe Illustrator 19.0.0, SVG Export Plug-In . SVG Version: 6.00 Build 0)  -->
<svg version="1.1" id="Capa_1" xmlns="http://www.w3.org/2000/svg" xmlns:xlink="http://www.w3.org/1999/xlink" x="0px" y="0px"
	 viewBox="0 0 512 512" style="enable-background:new 0 0 512 512;" xml:space="preserve">
<g>
	<g>
		<path d="M407,211.5c-5.593,0-11.134,0.437-16.592,1.304C383.99,144.294,326.159,90.5,256,90.5
			c-29.202,0-57.001,9.176-80.389,26.535l17.879,24.09C211.67,127.632,233.285,120.5,256,120.5c57.897,0,105,47.103,105,105
			c0,1.878-0.053,3.811-0.156,5.745l-1.221,22.776l21.396-7.902c8.299-3.065,17.04-4.619,25.981-4.619c41.355,0,75,33.645,75,75
			c0,41.355-33.645,75-75,75c-25.199,0-48.578-12.554-62.537-33.581l-96.917-145.997C222.431,174.088,180.357,151.5,135,151.5
			c-74.439,0-135,60.561-135,135s60.561,135,135,135c35.021,0,68.217-13.352,93.476-37.597l39.35-37.771l-20.775-21.643
			l-39.35,37.771C188.057,381.116,162.238,391.5,135,391.5c-57.897,0-105-47.103-105-105c0-57.897,47.103-105,105-105
			c35.28,0,68.01,17.575,87.552,47.014l96.917,145.997C339.001,403.934,371.724,421.5,407,421.5c57.897,0,105-47.103,105-105
			C512,258.603,464.897,211.5,407,211.5z"/>
	</g>
</g>
<g>
</g>
<g>
</g>
<g>
</g>
<g>
</g>
<g>
</g>
<g>
</g>
<g>
</g>
<g>
</g>
<g>
</g>
<g>
</g>
<g>
</g>
<g>
</g>
<g>
</g>
<g>
</g>
<g>
</g>
</svg>
