<?xml version="1.0" encoding="iso-8859-1"?>
<!-- Generator: Adobe Illustrator 19.0.0, SVG Export Plug-In . SVG Version: 6.00 Build 0)  -->
<svg version="1.1" id="Capa_1" xmlns="http://www.w3.org/2000/svg" xmlns:xlink="http://www.w3.org/1999/xlink" x="0px" y="0px"
	 viewBox="0 0 53.814 53.814" style="enable-background:new 0 0 53.814 53.814;" xml:space="preserve">
<g>
	<g>
		<path d="M50.697,24.419c-0.071-0.328-0.222-0.626-0.454-0.883c-0.283-0.317-0.638-0.522-1.029-0.674
			c-0.412-0.158-0.84-0.243-1.277-0.29c-0.129-0.014-0.258-0.026-0.387-0.041c-0.057-0.005-0.113,0.018-0.17-0.013
			c-1.271,0-2.543,0-3.815,0c-0.062,0.335-0.125,0.669-0.188,1.005c-0.152,0.835-0.307,1.668-0.461,2.503
			c-0.136,0.743-0.273,1.483-0.412,2.226c-0.058,0.316-0.115,0.635-0.172,0.949c-0.019,0.098-0.02,0.1-0.111,0.1
			c-1.397,0-2.797,0-4.194,0c-0.03,0-0.062,0.002-0.101-0.016c0.021-0.107,0.039-0.215,0.061-0.322
			c0.066-0.365,0.136-0.73,0.204-1.1c0.016-0.09,0.018-0.09,0.104-0.09c0.517,0,1.031,0,1.547,0c0.297,0,0.595,0,0.893,0
			c0.133,0,0.121,0.014,0.144-0.115c0.092-0.52,0.188-1.038,0.281-1.554c0.012-0.068,0.012-0.07-0.06-0.07
			c-0.162-0.002-0.327,0-0.491,0c-0.658,0-1.316,0-1.976,0c-0.111,0-0.11,0-0.09-0.111c0.08-0.427,0.157-0.856,0.238-1.284
			c0.026-0.14-0.002-0.122,0.146-0.122c0.822-0.002,1.646-0.002,2.468-0.002c0.024,0,0.052-0.002,0.075,0.002
			c0.055,0.005,0.07-0.022,0.08-0.07c0.043-0.25,0.088-0.497,0.133-0.745c0.068-0.362,0.136-0.726,0.201-1.09
			c0.006-0.029,0.014-0.061,0.012-0.093c-1.854,0-3.709,0-5.563,0c-0.002,0.137-0.039,0.269-0.064,0.399
			c-0.073,0.43-0.155,0.857-0.235,1.287c-0.093,0.5-0.187,1.004-0.277,1.507c-0.11,0.602-0.222,1.202-0.332,1.803
			c-0.084,0.455-0.166,0.908-0.25,1.36c-0.014,0.072-0.016,0.074-0.093,0.074c-0.618,0-1.239,0-1.858,0
			c-0.084,0-0.088-0.006-0.071-0.086c0.114-0.623,0.231-1.248,0.349-1.87c0.111-0.599,0.222-1.198,0.332-1.796
			c0.117-0.635,0.236-1.266,0.354-1.898c0.045-0.237,0.089-0.479,0.133-0.717c0.004-0.021,0.003-0.044,0.004-0.065
			c-0.968,0-1.938,0-2.904,0c-0.138,0.748-0.275,1.493-0.414,2.242c-0.129,0.698-0.256,1.396-0.384,2.095
			c-0.125,0.672-0.25,1.346-0.375,2.018c-0.014,0.076-0.016,0.078-0.089,0.078c-0.604,0-1.208,0-1.812,0
			c-0.084,0-0.084-0.004-0.067-0.086c0.149-0.811,0.3-1.613,0.448-2.421c0.154-0.83,0.312-1.662,0.467-2.492
			c0.083-0.444,0.165-0.887,0.245-1.331c0.007-0.032,0.018-0.068,0.007-0.103c-0.969,0-1.937,0-2.905,0
			c-0.006,0.133-0.042,0.262-0.064,0.391c-0.071,0.396-0.145,0.788-0.218,1.183c-0.093,0.504-0.186,1.005-0.279,1.508
			c-0.097,0.53-0.196,1.062-0.292,1.593c-0.104,0.56-0.207,1.116-0.31,1.674c-0.023,0.125-0.05,0.248-0.068,0.373
			c-0.008,0.051-0.031,0.062-0.075,0.062c-0.019-0.002-0.038,0-0.057,0c-1.392,0-2.783,0-4.175-0.002
			c-0.119,0-0.133,0.03-0.104-0.129c0.081-0.435,0.158-0.869,0.236-1.304c0.017-0.092,0.017-0.092,0.117-0.092
			c0.809,0,1.62,0,2.429,0c0.026,0,0.051-0.002,0.076,0c0.042,0.004,0.063-0.014,0.07-0.057c0.098-0.551,0.198-1.101,0.297-1.65
			c0.001-0.002,0-0.005-0.001-0.01c-0.035-0.021-0.073-0.012-0.11-0.012c-0.808,0-1.613,0-2.42,0c-0.119,0-0.121,0-0.1-0.113
			c0.082-0.451,0.165-0.9,0.247-1.351c0.009-0.049,0.027-0.07,0.081-0.068c0.11,0.003,0.22,0,0.332,0c0.744,0,1.487,0,2.23,0
			c0.022,0,0.044-0.002,0.067,0.002c0.051,0.005,0.071-0.021,0.08-0.07c0.029-0.178,0.063-0.354,0.096-0.531
			c0.079-0.438,0.159-0.874,0.238-1.312c0.005-0.028,0.005-0.056,0.008-0.084c-5.766,0-11.53,0-17.296,0
			c-0.018,0.17-0.056,0.335-0.086,0.502c-0.111,0.608-0.222,1.219-0.333,1.824c-0.098,0.535-0.195,1.069-0.292,1.603
			c-0.079,0.433-0.16,0.867-0.239,1.3c-0.005,0.029-0.012,0.056-0.017,0.087c-0.03,0-0.03-0.022-0.036-0.037
			c-0.35-0.96-0.699-1.922-1.049-2.883c-0.281-0.772-0.564-1.541-0.847-2.313c-0.009-0.025-0.015-0.054-0.023-0.081
			c-1.006,0-2.012,0-3.018,0c-0.043,0.226-0.087,0.452-0.129,0.678c-0.135,0.731-0.269,1.464-0.404,2.193
			c-0.136,0.737-0.273,1.47-0.409,2.206c-0.129,0.703-0.257,1.408-0.387,2.111c-0.089,0.484-0.178,0.967-0.267,1.449
			C0.03,31.188,0.022,31.215,0,31.235c0.001,0.028-0.011,0.073,0.048,0.059c0.012-0.006,0.025,0,0.038,0c0.939,0,1.879,0,2.819,0
			c-0.017-0.051-0.002-0.098,0.007-0.145c0.097-0.545,0.192-1.093,0.289-1.64c0.105-0.59,0.212-1.179,0.317-1.769
			c0.098-0.556,0.195-1.107,0.292-1.661c0.015-0.08,0.03-0.159,0.043-0.24c0.032-0.002,0.03,0.021,0.035,0.038
			c0.13,0.372,0.259,0.746,0.387,1.12c0.316,0.915,0.632,1.831,0.948,2.747c0.164,0.479,0.33,0.955,0.494,1.435
			c0.011,0.037,0.03,0.069,0.028,0.11c3.441,0,6.885,0,10.328,0c0.007-0.139,0.042-0.271,0.066-0.401
			c0.103-0.567,0.209-1.138,0.313-1.705c0.104-0.562,0.208-1.123,0.312-1.684c0.092-0.497,0.183-0.995,0.274-1.49
			c0.087-0.473,0.176-0.943,0.263-1.415c0.014-0.078,0.008-0.081,0.095-0.081c0.475,0,0.949,0,1.424,0
			c0.013,0,0.025,0.002,0.038,0.002c0.038-0.004,0.051,0.017,0.046,0.051c-0.016,0.091-0.03,0.182-0.047,0.272
			c-0.137,0.743-0.275,1.488-0.413,2.232c-0.136,0.731-0.272,1.465-0.407,2.196c-0.093,0.5-0.184,0.998-0.275,1.498
			c-0.032,0.176-0.063,0.35-0.094,0.523c9.037,0,18.074,0,27.11,0c0.006-0.135,0.041-0.264,0.063-0.396
			c0.078-0.437,0.158-0.875,0.238-1.312c0.11-0.602,0.223-1.203,0.334-1.805c0.043-0.232,0.084-0.467,0.127-0.699
			c0.032,0.003,0.028,0.03,0.033,0.05c0.196,0.654,0.393,1.312,0.587,1.97c0.214,0.718,0.427,1.433,0.638,2.149
			c0.004,0.013,0.006,0.025,0.008,0.039c0.964,0,1.926,0,2.888,0c-0.103-0.272-0.201-0.547-0.306-0.817
			c-0.32-0.858-0.644-1.715-0.965-2.569c-0.041-0.104-0.039-0.104,0.069-0.127c0.269-0.056,0.536-0.119,0.788-0.229
			c0.696-0.309,1.149-0.827,1.363-1.558c0.073-0.259,0.106-0.523,0.116-0.793C50.771,24.93,50.755,24.674,50.697,24.419z
			 M14.415,24.593c-0.021,0.145-0.05,0.289-0.075,0.432c-0.08,0.438-0.162,0.881-0.244,1.321c-0.091,0.499-0.185,0.998-0.278,1.498
			c-0.083,0.457-0.167,0.912-0.25,1.369c-0.015,0.084-0.015,0.086-0.103,0.086c-1.406,0-2.811,0-4.215,0
			c-0.025,0-0.051,0.004-0.083-0.014c0.064-0.353,0.128-0.699,0.191-1.045c0.024-0.125,0.047-0.25,0.07-0.373
			c0.017-0.094,0.016-0.094,0.112-0.094c0.845,0,1.69,0,2.534,0c0.127,0,0.129,0,0.153-0.13c0.086-0.478,0.172-0.954,0.259-1.435
			c0.007-0.04,0.015-0.078,0.021-0.12c0.009-0.061,0.008-0.061-0.054-0.064c-0.026,0-0.051,0-0.076,0c-0.823,0-1.645,0-2.468,0
			c-0.121,0-0.121,0-0.101-0.115c0.075-0.431,0.149-0.863,0.225-1.296c0.017-0.099,0.017-0.101,0.117-0.101c0.933,0,1.867,0,2.8,0
			c0.443,0,0.886,0,1.329,0c0.023,0,0.045,0,0.067,0C14.424,24.514,14.429,24.519,14.415,24.593z M47.844,25.86
			c-0.11,0.278-0.31,0.471-0.578,0.598c-0.197,0.092-0.41,0.137-0.629,0.163c-0.176,0.024-0.353,0.02-0.527,0.021
			c-0.13,0-0.26,0-0.391,0c-0.098-0.001-0.098-0.001-0.08-0.093c0.035-0.189,0.07-0.38,0.105-0.569
			c0.096-0.511,0.188-1.021,0.284-1.533c0.025-0.146,0.025-0.146,0.174-0.146c0.202,0,0.404-0.003,0.604,0.018
			c0.193,0.02,0.38,0.056,0.561,0.13c0.351,0.148,0.562,0.466,0.564,0.845C47.937,25.487,47.919,25.677,47.844,25.86z"/>
	</g>
</g>
<g>
	<g>
		<path d="M52.783,30.059c0.036-0.01,0.063-0.016,0.091-0.025c0.258-0.099,0.326-0.428,0.131-0.623
			c-0.074-0.074-0.166-0.098-0.267-0.098c-0.209-0.007-0.417,0.016-0.624,0.022c-0.132,0.004-0.132,0.004-0.125,0.139
			c0,0.013,0.002,0.024,0.003,0.037c0.011,0.209,0.021,0.414,0.033,0.621c0.008,0.162,0.013,0.323,0.021,0.483
			c0.004,0.113,0.006,0.109,0.117,0.105c0.079-0.002,0.078-0.012,0.076-0.082c-0.006-0.133-0.014-0.264-0.019-0.396
			c-0.002-0.039-0.022-0.088,0.002-0.119c0.025-0.034,0.076-0.01,0.115-0.02c0.162-0.035,0.289,0.014,0.391,0.149
			c0.091,0.12,0.177,0.243,0.267,0.366c0.018,0.021,0.029,0.056,0.061,0.056c0.068,0,0.14,0.021,0.216-0.024
			C53.117,30.445,53.001,30.217,52.783,30.059z M52.655,29.92c-0.115,0.01-0.232,0.004-0.349,0.018c-0.01,0-0.021,0-0.028,0
			c-0.07,0-0.066-0.002-0.075-0.07c-0.009-0.094-0.001-0.188-0.016-0.282c-0.014-0.087-0.004-0.091,0.09-0.095
			c0.104-0.006,0.208,0,0.312-0.02c0.058-0.008,0.113,0,0.168,0.018c0.092,0.023,0.155,0.099,0.16,0.188
			c0.002,0.09-0.035,0.158-0.117,0.201C52.755,29.901,52.706,29.913,52.655,29.92z"/>
	</g>
</g>
<g>
	<g>
		<path d="M53.777,29.654c-0.181-0.637-0.806-1.044-1.479-0.925c-0.674,0.118-1.146,0.758-1.049,1.44
			c0.075,0.526,0.375,0.875,0.869,1.062c0.059,0.021,0.123,0.025,0.178,0.059c0.152,0,0.303,0,0.455,0
			c0.104-0.039,0.213-0.057,0.312-0.104c0.375-0.178,0.616-0.467,0.724-0.868c0.013-0.05,0-0.103,0.027-0.146
			c0-0.113,0-0.229,0-0.342C53.784,29.775,53.793,29.713,53.777,29.654z M52.527,31.069c-0.522-0.002-1.061-0.427-1.062-1.064
			c-0.002-0.59,0.473-1.062,1.067-1.062c0.611,0,1.074,0.521,1.058,1.062C53.613,30.551,53.12,31.073,52.527,31.069z"/>
	</g>
</g>
<g>
</g>
<g>
</g>
<g>
</g>
<g>
</g>
<g>
</g>
<g>
</g>
<g>
</g>
<g>
</g>
<g>
</g>
<g>
</g>
<g>
</g>
<g>
</g>
<g>
</g>
<g>
</g>
<g>
</g>
</svg>
